<svg id="Layer_1" data-name="Layer 1" xmlns="http://www.w3.org/2000/svg" viewBox="0 0 1678.7 281.7"><defs><style>.cls-1,.cls-3{fill:#6bb645;}.cls-2{fill:#05509f;}.cls-3{fill-rule:evenodd;}</style></defs><title>Single_Line2</title><path class="cls-1" d="M905.55,643.33H877.64v-135h27.91v135Z" transform="translate(-79.15 -363.13)"/><path class="cls-1" d="M951.21,508.49a7.89,7.89,0,0,1,2.22.56,7.55,7.55,0,0,1,1.91,1.21,20.57,20.57,0,0,1,2.07,2.1l78.44,90.26q-0.41-3.27-.57-6.39t-0.16-5.83V508.35h24.5v135h-14.37a13.91,13.91,0,0,1-5.48-.93,11.89,11.89,0,0,1-4.24-3.36l-78.13-89.89q0.31,3,.46,5.93t0.16,5.37v82.89h-24.5v-135H948.1A28.46,28.46,0,0,1,951.21,508.49Z" transform="translate(-79.15 -363.13)"/><path class="cls-1" d="M1166.42,532.9a6.4,6.4,0,0,1-6.2,3.73,9.71,9.71,0,0,1-4.65-1.45q-2.58-1.45-6.1-3.22a53,53,0,0,0-8.22-3.22,38,38,0,0,0-11.11-1.45,35.9,35.9,0,0,0-10.08,1.26,22.13,22.13,0,0,0-7.24,3.5,14.18,14.18,0,0,0-4.39,5.37,16.13,16.13,0,0,0-1.45,6.86,11.21,11.21,0,0,0,2.95,7.93,24.42,24.42,0,0,0,7.8,5.41,77,77,0,0,0,11.06,4q6.2,1.77,12.66,3.78a130.08,130.08,0,0,1,12.66,4.67,44.43,44.43,0,0,1,11.06,6.72,30.73,30.73,0,0,1,7.8,9.94,31.64,31.64,0,0,1,2.95,14.28,42.58,42.58,0,0,1-3.46,17.13,39.45,39.45,0,0,1-10.13,13.91,48.6,48.6,0,0,1-16.28,9.33,65.73,65.73,0,0,1-22,3.41,78.36,78.36,0,0,1-14.06-1.26,79.89,79.89,0,0,1-13.28-3.59,72,72,0,0,1-11.89-5.6,57.62,57.62,0,0,1-9.87-7.28l8.06-12a10,10,0,0,1,2.74-2.19,7.25,7.25,0,0,1,3.57-.89,10.53,10.53,0,0,1,5.58,1.91q3,1.91,7.08,4.25a56.7,56.7,0,0,0,9.61,4.25,40.77,40.77,0,0,0,13.28,1.91q11.88,0,18.4-5.09t6.51-14.61a12.69,12.69,0,0,0-2.95-8.68,23.52,23.52,0,0,0-7.8-5.65,62.25,62.25,0,0,0-11.06-3.87q-6.2-1.59-12.61-3.45a115.61,115.61,0,0,1-12.61-4.48,41.22,41.22,0,0,1-11.06-6.81,31,31,0,0,1-7.8-10.5q-2.94-6.3-2.95-15.54a33.74,33.74,0,0,1,3.26-14.37,37,37,0,0,1,9.51-12.42,47.92,47.92,0,0,1,15.35-8.68,61.24,61.24,0,0,1,20.77-3.27,76.5,76.5,0,0,1,24.39,3.73,56.39,56.39,0,0,1,19,10.45Z" transform="translate(-79.15 -363.13)"/><path class="cls-1" d="M1223.74,643.33h-27.91v-135h27.91v135Z" transform="translate(-79.15 -363.13)"/><path class="cls-1" d="M1321,624.85a76.76,76.76,0,0,0,16.38-1.54,73.93,73.93,0,0,0,13.28-4.25V594.51H1332a6.22,6.22,0,0,1-4.24-1.35,4.23,4.23,0,0,1-1.55-3.31V575.66h49.71v54.61a84.21,84.21,0,0,1-11.83,6.49,80.55,80.55,0,0,1-13.13,4.53,110.18,110.18,0,0,1-14.93,2.66,155.45,155.45,0,0,1-17.16.89,85.31,85.31,0,0,1-30.08-5.13A72.38,72.38,0,0,1,1265,625.41a64.76,64.76,0,0,1-15.66-21.84,67.57,67.57,0,0,1-5.63-27.72,69.69,69.69,0,0,1,5.48-27.91,62.68,62.68,0,0,1,15.55-21.84,70.66,70.66,0,0,1,24.44-14.19,97,97,0,0,1,32.25-5q18.29,0,31.68,4.9a74.64,74.64,0,0,1,22.69,12.74l-8.06,11.39a7.32,7.32,0,0,1-6.3,3.45,10.07,10.07,0,0,1-5.06-1.49q-3.31-1.77-6.77-3.55a48.61,48.61,0,0,0-7.65-3.08,68,68,0,0,0-9.41-2.15,76.52,76.52,0,0,0-12-.84,56.48,56.48,0,0,0-20,3.36,41.68,41.68,0,0,0-25,24.64,53.73,53.73,0,0,0-3.41,19.6,55.86,55.86,0,0,0,3.62,20.77A42.92,42.92,0,0,0,1285.86,612a44.06,44.06,0,0,0,15.5,9.57A56.35,56.35,0,0,0,1321,624.85Z" transform="translate(-79.15 -363.13)"/><path class="cls-1" d="M1525.22,643.33h-28v-59h-70.07v59h-28v-135h28v58.06h70.07V508.35h28v135Z" transform="translate(-79.15 -363.13)"/><path class="cls-1" d="M1655,508.35V529h-45V643.33h-27.8V529H1537.1V508.35H1655Z" transform="translate(-79.15 -363.13)"/><path class="cls-1" d="M1748.35,532.9a6.4,6.4,0,0,1-6.2,3.73,9.71,9.71,0,0,1-4.65-1.45q-2.58-1.45-6.1-3.22a53,53,0,0,0-8.22-3.22,38,38,0,0,0-11.11-1.45,35.9,35.9,0,0,0-10.08,1.26,22.13,22.13,0,0,0-7.24,3.5,14.18,14.18,0,0,0-4.39,5.37,16.13,16.13,0,0,0-1.45,6.86,11.21,11.21,0,0,0,2.95,7.93,24.42,24.42,0,0,0,7.8,5.41,77,77,0,0,0,11.06,4q6.2,1.77,12.66,3.78A130.08,130.08,0,0,1,1736,570.1a44.43,44.43,0,0,1,11.06,6.72,30.73,30.73,0,0,1,7.8,9.94,31.64,31.64,0,0,1,2.95,14.28,42.58,42.58,0,0,1-3.46,17.13,39.45,39.45,0,0,1-10.13,13.91,48.6,48.6,0,0,1-16.28,9.33,65.73,65.73,0,0,1-22,3.41,78.36,78.36,0,0,1-14.06-1.26,79.89,79.89,0,0,1-13.28-3.59,72,72,0,0,1-11.89-5.6,57.62,57.62,0,0,1-9.87-7.28l8.06-12a10,10,0,0,1,2.74-2.19,7.25,7.25,0,0,1,3.57-.89,10.53,10.53,0,0,1,5.58,1.91q3,1.91,7.08,4.25a56.7,56.7,0,0,0,9.61,4.25,40.77,40.77,0,0,0,13.28,1.91q11.88,0,18.4-5.09t6.51-14.61a12.69,12.69,0,0,0-2.95-8.68,23.52,23.52,0,0,0-7.8-5.65,62.25,62.25,0,0,0-11.06-3.87q-6.2-1.59-12.61-3.45a115.61,115.61,0,0,1-12.61-4.48,41.22,41.22,0,0,1-11.06-6.81,31,31,0,0,1-7.8-10.5q-2.94-6.3-2.95-15.54a33.74,33.74,0,0,1,3.26-14.37,37,37,0,0,1,9.51-12.42,47.92,47.92,0,0,1,15.35-8.68,61.24,61.24,0,0,1,20.77-3.27,76.5,76.5,0,0,1,24.39,3.73,56.39,56.39,0,0,1,19,10.45Z" transform="translate(-79.15 -363.13)"/><path class="cls-1" d="M465.38,575.72c0-.35.06-0.7,0.06-1.06,0-10.7-9-19.37-20.05-19.37s-20.05,8.67-20.05,19.37c0,0.36,0,.7.06,1.06l20,18.31Z" transform="translate(-79.15 -363.13)"/><path class="cls-1" d="M445.38,594l-20-18.31C426,585.92,434.68,594,445.38,594Z" transform="translate(-79.15 -363.13)"/><path class="cls-1" d="M465.38,575.72l-20,18.31C456.09,594,464.81,585.92,465.38,575.72Z" transform="translate(-79.15 -363.13)"/><path class="cls-1" d="M445.38,528a44,44,0,0,1,40.37,26.44l18.3-16.76a68,68,0,0,0-117.36,0L405,554.42A44,44,0,0,1,445.38,528Z" transform="translate(-79.15 -363.13)"/><path class="cls-2" d="M553.16,507.81h19.7a8.25,8.25,0,0,1,5.1,1.54,7.43,7.43,0,0,1,2.75,4.15l21.44,80.67q0.78,3,1.44,6.48t1.26,7.42q0.7-3.92,1.53-7.42t1.79-6.48L632.9,513.5a8.81,8.81,0,0,1,2.75-3.92,7.4,7.4,0,0,1,5-1.77h6.88a8.06,8.06,0,0,1,5.05,1.54,8,8,0,0,1,2.79,4.15L680,594.17a113.28,113.28,0,0,1,3.31,13.24q0.61-3.64,1.26-7t1.35-6.25l21.44-80.67a7.53,7.53,0,0,1,2.7-4,7.82,7.82,0,0,1,5.05-1.68h18.39L694.34,642.67H673.17l-27.54-92.14q-0.52-1.77-1.09-3.82t-1.09-4.38q-0.52,2.33-1.09,4.38t-1.09,3.82l-27.8,92.14H592.29Z" transform="translate(-79.15 -363.13)"/><path class="cls-2" d="M855,575.24a77.48,77.48,0,0,1-4.62,27.23,63.15,63.15,0,0,1-13,21.36,57.84,57.84,0,0,1-20.13,13.9,66.62,66.62,0,0,1-26.06,4.94H743.06V507.81h48.11a66.11,66.11,0,0,1,26.06,5,58.71,58.71,0,0,1,20.13,13.9,62.66,62.66,0,0,1,13,21.31A77.48,77.48,0,0,1,855,575.24Zm-24,0a65.92,65.92,0,0,0-2.79-19.91,43.05,43.05,0,0,0-7.93-14.92A34.32,34.32,0,0,0,807.77,531a40.57,40.57,0,0,0-16.6-3.26H766.68v94.94h24.49a40.55,40.55,0,0,0,16.6-3.26,34.29,34.29,0,0,0,12.51-9.37,43,43,0,0,0,7.93-14.92A65.92,65.92,0,0,0,831,575.24Z" transform="translate(-79.15 -363.13)"/><path class="cls-2" d="M198.12,609.88a6.07,6.07,0,0,1,4.19,1.58L214,622.19a64.08,64.08,0,0,1-23.89,15.57q-14.18,5.41-34,5.41A93.46,93.46,0,0,1,124.13,638,71.74,71.74,0,0,1,99.9,623.78,61.42,61.42,0,0,1,84.51,602a70.49,70.49,0,0,1-5.35-27.7,63.33,63.33,0,0,1,22.73-49.62,78.48,78.48,0,0,1,25.88-14.22A103.59,103.59,0,0,1,161,505.33q17.77,0,31.07,4.8a74.87,74.87,0,0,1,22.79,12.73L205,534.53a8.43,8.43,0,0,1-2.26,2,7.33,7.33,0,0,1-3.81.84,9.67,9.67,0,0,1-5.19-1.68A66.87,66.87,0,0,0,187,532a60.82,60.82,0,0,0-10.32-3.64,62.29,62.29,0,0,0-15.84-1.68A62.15,62.15,0,0,0,140.13,530a47,47,0,0,0-16.22,9.47,42.87,42.87,0,0,0-10.59,15,49.5,49.5,0,0,0-3.81,19.82,50.83,50.83,0,0,0,3.81,20.24,43.57,43.57,0,0,0,10.32,14.92A44.65,44.65,0,0,0,139,618.69a55,55,0,0,0,19,3.22,97.69,97.69,0,0,0,11-.56,53.92,53.92,0,0,0,9-1.77,43.78,43.78,0,0,0,7.84-3.12,49.06,49.06,0,0,0,7.34-4.71,10.68,10.68,0,0,1,2.32-1.35A6.75,6.75,0,0,1,198.12,609.88Z" transform="translate(-79.15 -363.13)"/><path class="cls-2" d="M259,589v52.69H229.33V506.83H278q16.33,0,28,2.84t19.09,8A31.87,31.87,0,0,1,336,529.91a35.4,35.4,0,0,1,3.48,15.71,35,35,0,0,1-2.37,12.87,35.7,35.7,0,0,1-6.84,11,44,44,0,0,1-11,8.67,63.09,63.09,0,0,1-15,6,28,28,0,0,1,9.71,7.74l39.95,49.8H327.21a15,15,0,0,1-6.57-1.31,12.69,12.69,0,0,1-4.58-3.73l-33.55-43.18a11.15,11.15,0,0,0-4.14-3.45,16.84,16.84,0,0,0-6.68-1H259Zm0-18h18.54a53.78,53.78,0,0,0,14.62-1.77,29.93,29.93,0,0,0,10.26-4.9,19.93,19.93,0,0,0,6-7.41,22.14,22.14,0,0,0,2-9.42q0-10.26-8-15.76T278,526.23H259V571Z" transform="translate(-79.15 -363.13)"/><path class="cls-3" d="M519.18,435.84c-4.54,1.26-8,3.68-9.8,8.07-2.38,5.88-.71,11,3.27,15.58a15.35,15.35,0,0,0,2.61,2.33,1.22,1.22,0,0,1,.43,1.8c-1.28,2.78-2.49,5.6-3.73,8.39l-0.63,1.42,5.76,2.54,4.71-10.66a53.09,53.09,0,0,0,6.23.25c4.83-.37,8.85-2.33,11.5-6.55s2.57-8.5.66-12.9a2,2,0,0,1,.25-2.27,8.75,8.75,0,0,0,.64-9.56,2.21,2.21,0,0,1,.16-2.7,7.31,7.31,0,0,0-1.76-10.17A7.42,7.42,0,0,0,529.14,423a21.56,21.56,0,0,0-1.37,3.19,2.14,2.14,0,0,1-1,1.14C522.4,428.54,519.76,431.23,519.18,435.84Z" transform="translate(-79.15 -363.13)"/><path class="cls-1" d="M500.93,463.11l4.44-13.64c1.95-6,.65-11.78-2.89-12.94l-1.88-.61c-3.55-1.16-8,2.76-10,8.75l-4.44,13.64Z" transform="translate(-79.15 -363.13)"/><ellipse class="cls-1" cx="503.3" cy="429.78" rx="5.5" ry="5.69" transform="translate(-140.4 412.08) rotate(-71.96)"/><path class="cls-1" d="M434.14,363.13v92.81h50.49V363.13H434.14Zm7.14,9.18h14.49v16.83H441.28V372.3Zm14.49,61.23H442V416.7h13.73v16.83Zm0-22H442V394.72h13.73v16.83Zm21.92,22H464V416.7h13.73v16.83Zm0-22H464V394.72h13.72v16.83Zm0-22.16H464l0-17.09h13.72Z" transform="translate(-79.15 -363.13)"/><path class="cls-3" d="M402.63,413.25c-4.24,4.33-6.57,9.28-5.71,15.31,1.14,8.09,6.3,12.71,13.69,15.24a19.75,19.75,0,0,0,4.4.91,1.57,1.57,0,0,1,1.63,1.73c0.37,3.92.83,7.84,1.26,11.76l0.22,2,8.05-.88-1.63-14.91a68.33,68.33,0,0,0,7.09-3.74c5.14-3.53,8.36-8.31,8.59-14.72s-2.62-11.13-7.59-14.79a2.53,2.53,0,0,1-1.19-2.69A11.27,11.27,0,0,0,426,397.4a2.84,2.84,0,0,1-1.56-3.11,9.41,9.41,0,0,0-8.52-10.19,9.55,9.55,0,0,0-10.45,8.49c-0.13,1.45.41,3,.53,4.43a2.75,2.75,0,0,1-.38,1.91C401.51,403.05,400.3,407.74,402.63,413.25Z" transform="translate(-79.15 -363.13)"/><path class="cls-1" d="M404.52,462.27l-4.77-17.48c-2.09-7.67-7.48-12.89-12-11.65l-2.42.66c-4.55,1.24-6.54,8.47-4.44,16.15l4.77,17.48Z" transform="translate(-79.15 -363.13)"/><ellipse class="cls-1" cx="383.89" cy="425.44" rx="7.19" ry="6.95" transform="translate(-177.63 -247.04) rotate(-15.27)"/><path class="cls-1" d="M388.12,474.74L380,459c-3.57-6.92-9.8-10.81-13.9-8.7l-2.18,1.12c-4.1,2.12-4.53,9.45-1,16.37l8.14,15.77Z" transform="translate(-79.15 -363.13)"/><ellipse class="cls-1" cx="360.85" cy="443.69" rx="7.04" ry="6.8" transform="translate(-242.47 -148.17) rotate(-27.3)"/><path class="cls-1" d="M445.38,478.77a94.48,94.48,0,0,1,78.6,42l22.23-20.35a124.45,124.45,0,0,0-201.66,0l22.23,20.35A94.48,94.48,0,0,1,445.38,478.77Z" transform="translate(-79.15 -363.13)"/><path class="cls-2" d="M488.49,563a44.48,44.48,0,1,1-86.2-.11L383,545.22a68.69,68.69,0,1,0,124.8.09Z" transform="translate(-79.15 -363.13)"/></svg>