<svg id="Layer_1" data-name="Layer 1" xmlns="http://www.w3.org/2000/svg" viewBox="0 0 1087.6 201.06"><defs><style>.cls-1{font-size:120.11px;}.cls-1,.cls-5,.cls-9{fill:#6bb645;}.cls-1,.cls-6{font-family:Lato;font-weight:700;}.cls-2{letter-spacing:-2.71px;}.cls-3{letter-spacing:-1.81px;}.cls-4{letter-spacing:-0.9px;}.cls-6{font-size:120.11px;}.cls-10,.cls-6{fill:#05509f;}.cls-7{letter-spacing:-2.14px;}.cls-8{letter-spacing:-4.23px;}.cls-9{fill-rule:evenodd;}</style></defs><title>CrowdInsights</title><text class="cls-1" transform="translate(505.41 177.96) scale(1.11 1)"><tspan class="cls-2">I</tspan><tspan class="cls-3" x="34.46" y="0">N</tspan><tspan class="cls-2" x="123.24" y="0">S</tspan><tspan class="cls-2" x="184.9" y="0">I</tspan><tspan class="cls-4" x="219.73" y="0">G</tspan><tspan class="cls-2" x="305.01" y="0">H</tspan><tspan class="cls-3" x="392.5" y="0">T</tspan><tspan x="461.39" y="0">S</tspan></text><path class="cls-5" d="M315.14,323.54c0-.23,0-0.45,0-0.68a12.92,12.92,0,0,0-25.83,0c0,0.23,0,.45,0,0.68l12.88,11.79Z" transform="translate(-62.02 -186.64)"/><path class="cls-5" d="M302.26,335.33l-12.88-11.79A12.72,12.72,0,0,0,302.26,335.33Z" transform="translate(-62.02 -186.64)"/><path class="cls-5" d="M315.14,323.54l-12.88,11.79A12.72,12.72,0,0,0,315.14,323.54Z" transform="translate(-62.02 -186.64)"/><path class="cls-5" d="M302.26,292.8a28.36,28.36,0,0,1,26,17L340,299a43.78,43.78,0,0,0-75.57,0l11.79,10.79A28.36,28.36,0,0,1,302.26,292.8Z" transform="translate(-62.02 -186.64)"/><text class="cls-6" transform="translate(308.97 177.96) scale(0.93 1)"><tspan class="cls-7">W</tspan><tspan x="122.81" y="0">D</tspan></text><text class="cls-6" transform="translate(0 179.38) scale(1.18 1)"><tspan class="cls-8">C</tspan><tspan x="76.14" y="0">R</tspan></text><path class="cls-9" d="M349.78,233.47c-2.92.81-5.17,2.37-6.31,5.19-1.53,3.79-.46,7.08,2.11,10a9.88,9.88,0,0,0,1.68,1.5,0.78,0.78,0,0,1,.27,1.16c-0.83,1.79-1.61,3.6-2.4,5.41l-0.41.92,3.71,1.64,3-6.86a34.19,34.19,0,0,0,4,.16,9,9,0,0,0,7.41-4.22,8.45,8.45,0,0,0,.42-8.31,1.27,1.27,0,0,1,.16-1.46,5.64,5.64,0,0,0,.41-6.15,1.42,1.42,0,0,1,.1-1.74,4.71,4.71,0,0,0-1.13-6.55,4.78,4.78,0,0,0-6.65,1.05,13.88,13.88,0,0,0-.88,2.05,1.38,1.38,0,0,1-.64.73A6,6,0,0,0,349.78,233.47Z" transform="translate(-62.02 -186.64)"/><path class="cls-5" d="M338,251l2.86-8.79c1.26-3.85.42-7.59-1.86-8.33l-1.21-.4c-2.28-.74-5.16,1.78-6.41,5.63l-2.86,8.79Z" transform="translate(-62.02 -186.64)"/><ellipse class="cls-5" cx="339.55" cy="229.56" rx="3.54" ry="3.67" transform="translate(-45.91 294.67) rotate(-71.96)"/><path class="cls-5" d="M295,186.64V246.4h32.51V186.64H295Zm4.6,5.91H309v10.84h-9.33V192.55ZM309,232h-8.84V221.14H309V232Zm0-14.15h-8.84V207H309v10.84ZM323.07,232h-8.84V221.14h8.84V232Zm0-14.15h-8.84V207h8.84v10.84Zm0-14.27h-8.84l0-11h8.84Z" transform="translate(-62.02 -186.64)"/><path class="cls-9" d="M274.73,218.92c-2.73,2.79-4.23,6-3.68,9.86,0.74,5.21,4.06,8.18,8.81,9.81a12.72,12.72,0,0,0,2.84.59,1,1,0,0,1,1.05,1.11c0.24,2.53.54,5,.81,7.57l0.14,1.28,5.19-.57-1-9.6a44,44,0,0,0,4.57-2.41,11.64,11.64,0,0,0,5.53-9.48c0.15-4.07-1.69-7.17-4.89-9.53a1.63,1.63,0,0,1-.76-1.73,7.26,7.26,0,0,0-3.51-7.12,1.83,1.83,0,0,1-1-2,6.06,6.06,0,0,0-5.49-6.56,6.15,6.15,0,0,0-6.73,5.47,17.87,17.87,0,0,0,.34,2.86,1.77,1.77,0,0,1-.24,1.23C274,212.35,273.23,215.37,274.73,218.92Z" transform="translate(-62.02 -186.64)"/><path class="cls-5" d="M275.94,250.48l-3.07-11.26c-1.35-4.94-4.82-8.3-7.75-7.5l-1.56.42c-2.93.8-4.21,5.46-2.86,10.4l3.07,11.26Z" transform="translate(-62.02 -186.64)"/><ellipse class="cls-5" cx="262.66" cy="226.77" rx="4.63" ry="4.48" transform="translate(-112.46 -109.48) rotate(-15.27)"/><path class="cls-5" d="M265.38,258.51l-5.24-10.16c-2.3-4.46-6.31-7-9-5.6l-1.4.72c-2.64,1.36-2.92,6.08-.62,10.54l5.24,10.16Z" transform="translate(-62.02 -186.64)"/><ellipse class="cls-5" cx="247.82" cy="238.52" rx="4.54" ry="4.38" transform="translate(-143.82 -46.39) rotate(-27.3)"/><path class="cls-5" d="M302.26,261.11a60.84,60.84,0,0,1,50.62,27L367.19,275a80.14,80.14,0,0,0-129.86,0l14.31,13.1A60.84,60.84,0,0,1,302.26,261.11Z" transform="translate(-62.02 -186.64)"/><path class="cls-10" d="M330,315.37a28.65,28.65,0,1,1-55.51-.07l-12.42-11.4a44.23,44.23,0,1,0,80.37.06Z" transform="translate(-62.02 -186.64)"/></svg>